<svg width="300" height="200" viewBox="0 0 300 200" fill="none" xmlns="http://www.w3.org/2000/svg">
  <!-- Sky background -->
  <rect width="300" height="200" fill="#e8f4fd"/>
  
  <!-- Building 1 -->
  <rect x="50" y="80" width="60" height="120" fill="#7B2D6B" opacity="0.8"/>
  <rect x="60" y="90" width="8" height="12" fill="#ffffff" opacity="0.9"/>
  <rect x="72" y="90" width="8" height="12" fill="#ffffff" opacity="0.9"/>
  <rect x="84" y="90" width="8" height="12" fill="#ffffff" opacity="0.9"/>
  <rect x="60" y="110" width="8" height="12" fill="#ffffff" opacity="0.9"/>
  <rect x="72" y="110" width="8" height="12" fill="#ffffff" opacity="0.9"/>
  <rect x="84" y="110" width="8" height="12" fill="#ffffff" opacity="0.9"/>
  
  <!-- Building 2 -->
  <rect x="120" y="60" width="50" height="140" fill="#5A1E4A"/>
  <rect x="128" y="70" width="6" height="10" fill="#ffffff" opacity="0.9"/>
  <rect x="138" y="70" width="6" height="10" fill="#ffffff" opacity="0.9"/>
  <rect x="148" y="70" width="6" height="10" fill="#ffffff" opacity="0.9"/>
  <rect x="158" y="70" width="6" height="10" fill="#ffffff" opacity="0.9"/>
  
  <!-- Building 3 -->
  <rect x="180" y="90" width="70" height="110" fill="#9B4A8B" opacity="0.7"/>
  <rect x="190" y="100" width="10" height="15" fill="#ffffff" opacity="0.9"/>
  <rect x="205" y="100" width="10" height="15" fill="#ffffff" opacity="0.9"/>
  <rect x="220" y="100" width="10" height="15" fill="#ffffff" opacity="0.9"/>
  <rect x="235" y="100" width="10" height="15" fill="#ffffff" opacity="0.9"/>
  
  <!-- Ground -->
  <rect x="0" y="190" width="300" height="10" fill="#3e3e3c"/>
  
  <!-- Title -->
  <text x="150" y="30" font-family="Poppins, sans-serif" font-size="16" font-weight="600" fill="#5A1E4A" text-anchor="middle">
    Professional Building
  </text>
</svg>